# MagicaVoxel @ Ephtracy

# group
o 

# material
mtllib NoBrakeTrain.mtl
usemtl palette

# normals
vn -1 0 0
vn 1 0 0
vn 0 0 1
vn 0 0 -1
vn 0 -1 0
vn 0 1 0

# texcoords
vt 0.0410156 0.5
vt 0.861328 0.5
vt 0.982422 0.5
vt 0.994141 0.5

# verts
v 0.6 2 -2.1
v 0.6 2 -4
v 0.6 2.8 -2.1
v 0.6 2.8 -4
v 0.6 4.8 -2.1
v 0.6 4.8 -4
v 0.6 5.3 -2.1
v 0.6 5.3 -4
v 1.5 3.7 -1.8
v 1.5 3.7 -1.9
v 1.5 4.3 -1.8
v 1.5 4.3 -1.9
v 1.7 3.9 -1.9
v 1.7 3.9 -2.1
v 1.7 4.1 -1.9
v 1.7 4.1 -2.1
v 1.9 3.9 -1.9
v 1.9 3.9 -2.1
v 1.9 4.1 -1.9
v 1.9 4.1 -2.1
v 2.1 3.7 -1.8
v 2.1 3.7 -1.9
v 2.1 4.3 -1.8
v 2.1 4.3 -1.9
v 3.1 2 -2.1
v 3.1 2 -4
v 3.1 2.8 -2.1
v 3.1 2.8 -4
v 3.1 4.8 -2.1
v 3.1 4.8 -4
v 3.1 5.3 -2.1
v 3.1 5.3 -4
v 1.5 3.7 -1.8
v 1.5 4.3 -1.8
v 2.1 3.7 -1.8
v 2.1 4.3 -1.8
v 0.6 2 -2.1
v 0.6 2.8 -2.1
v 0.6 4.8 -2.1
v 0.6 5.3 -2.1
v 1.7 3.9 -2.1
v 1.7 4.1 -2.1
v 1.9 3.9 -2.1
v 1.9 4.1 -2.1
v 3.1 2 -2.1
v 3.1 2.8 -2.1
v 3.1 4.8 -2.1
v 3.1 5.3 -2.1
v 1.5 3.7 -1.9
v 1.5 4.3 -1.9
v 1.7 3.9 -1.9
v 1.7 4.1 -1.9
v 1.9 3.9 -1.9
v 1.9 4.1 -1.9
v 2.1 3.7 -1.9
v 2.1 4.3 -1.9
v 0.6 2 -4
v 0.6 2.8 -4
v 0.6 4.8 -4
v 0.6 5.3 -4
v 3.1 2 -4
v 3.1 2.8 -4
v 3.1 4.8 -4
v 3.1 5.3 -4
v 0.6 2 -2.1
v 3.1 2 -2.1
v 0.6 2 -4
v 3.1 2 -4
v 1.5 3.7 -1.8
v 2.1 3.7 -1.8
v 1.5 3.7 -1.9
v 2.1 3.7 -1.9
v 1.7 3.9 -1.9
v 1.9 3.9 -1.9
v 1.7 3.9 -2.1
v 1.9 3.9 -2.1
v 1.7 4.1 -1.9
v 1.9 4.1 -1.9
v 1.7 4.1 -2.1
v 1.9 4.1 -2.1
v 1.5 4.3 -1.8
v 2.1 4.3 -1.8
v 1.5 4.3 -1.9
v 2.1 4.3 -1.9
v 0.6 5.3 -2.1
v 3.1 5.3 -2.1
v 0.6 5.3 -4
v 3.1 5.3 -4

# faces
f 3/1/1 2/1/1 1/1/1
f 4/1/1 2/1/1 3/1/1
f 5/3/1 4/3/1 3/3/1
f 6/3/1 4/3/1 5/3/1
f 7/2/1 6/2/1 5/2/1
f 8/2/1 6/2/1 7/2/1
f 11/4/1 10/4/1 9/4/1
f 12/4/1 10/4/1 11/4/1
f 15/4/1 14/4/1 13/4/1
f 16/4/1 14/4/1 15/4/1
f 17/4/2 18/4/2 19/4/2
f 19/4/2 18/4/2 20/4/2
f 21/4/2 22/4/2 23/4/2
f 23/4/2 22/4/2 24/4/2
f 25/1/2 26/1/2 27/1/2
f 27/1/2 26/1/2 28/1/2
f 27/3/2 28/3/2 29/3/2
f 29/3/2 28/3/2 30/3/2
f 29/2/2 30/2/2 31/2/2
f 31/2/2 30/2/2 32/2/2
f 35/4/3 34/4/3 33/4/3
f 36/4/3 34/4/3 35/4/3
f 41/3/3 39/3/3 38/3/3
f 42/3/3 39/3/3 41/3/3
f 43/3/3 41/3/3 38/3/3
f 44/3/3 39/3/3 42/3/3
f 45/1/3 38/1/3 37/1/3
f 46/3/3 44/3/3 43/3/3
f 46/1/3 38/1/3 45/1/3
f 46/3/3 43/3/3 38/3/3
f 47/2/3 40/2/3 39/2/3
f 47/3/3 44/3/3 46/3/3
f 47/3/3 39/3/3 44/3/3
f 48/2/3 40/2/3 47/2/3
f 49/4/4 50/4/4 51/4/4
f 51/4/4 50/4/4 52/4/4
f 49/4/4 51/4/4 53/4/4
f 52/4/4 50/4/4 54/4/4
f 49/4/4 53/4/4 55/4/4
f 53/4/4 54/4/4 55/4/4
f 54/4/4 50/4/4 56/4/4
f 55/4/4 54/4/4 56/4/4
f 57/1/4 58/1/4 61/1/4
f 58/3/4 59/3/4 62/3/4
f 61/1/4 58/1/4 62/1/4
f 59/2/4 60/2/4 63/2/4
f 62/3/4 59/3/4 63/3/4
f 63/2/4 60/2/4 64/2/4
f 67/1/5 66/1/5 65/1/5
f 68/1/5 66/1/5 67/1/5
f 71/4/5 70/4/5 69/4/5
f 72/4/5 70/4/5 71/4/5
f 75/4/5 74/4/5 73/4/5
f 76/4/5 74/4/5 75/4/5
f 77/4/6 78/4/6 79/4/6
f 79/4/6 78/4/6 80/4/6
f 81/4/6 82/4/6 83/4/6
f 83/4/6 82/4/6 84/4/6
f 85/2/6 86/2/6 87/2/6
f 87/2/6 86/2/6 88/2/6
