# MagicaVoxel @ Ephtracy

# group
o 

# material
mtllib Police.mtl
usemtl palette

# normals
vn -1 0 0
vn 1 0 0
vn 0 0 1
vn 0 0 -1
vn 0 -1 0
vn 0 1 0

# texcoords
vt 0.306641 0.5
vt 0.994141 0.5

# verts
v 0 2 0
v 0 2 -2
v 0 3 0
v 0 3 -2
v 2.4 2.2 0
v 2.4 2.2 -0.1
v 2.4 2.8 0
v 2.4 2.8 -0.1
v 2.7 2.5 0
v 2.7 2.5 -0.1
v 2.7 2.7 0
v 2.7 2.7 -0.1
v 2.9 2.3 0
v 2.9 2.3 -0.1
v 2.9 2.7 0
v 2.9 2.7 -0.1
v 3 2.2 0
v 3 2.2 -0.1
v 3 2.3 0
v 3 2.3 -0.1
v 3 2.7 0
v 3 2.7 -0.1
v 3 2.8 0
v 3 2.8 -0.1
v 3.2 2.3 0
v 3.2 2.3 -0.1
v 3.2 2.7 0
v 3.2 2.7 -0.1
v 3.4 2.2 0
v 3.4 2.2 -0.1
v 3.4 2.8 0
v 3.4 2.8 -0.1
v 3.6 2.2 0
v 3.6 2.2 -0.1
v 3.6 2.6 0
v 3.6 2.6 -0.1
v 3.6 2.7 0
v 3.6 2.7 -0.1
v 3.6 2.8 0
v 3.6 2.8 -0.1
v 3.8 2.3 0
v 3.8 2.3 -0.1
v 3.8 2.7 0
v 3.8 2.7 -0.1
v 3.9 2.2 0
v 3.9 2.2 -0.1
v 3.9 2.3 0
v 3.9 2.3 -0.1
v 3.9 2.7 0
v 3.9 2.7 -0.1
v 3.9 2.8 0
v 3.9 2.8 -0.1
v 4.1 2.3 0
v 4.1 2.3 -0.1
v 4.1 2.4 0
v 4.1 2.4 -0.1
v 4.1 2.6 0
v 4.1 2.6 -0.1
v 4.1 2.7 0
v 4.1 2.7 -0.1
v 4.3 2.2 0
v 4.3 2.2 -0.1
v 4.3 2.8 0
v 4.3 2.8 -0.1
v 6.9 2.1 0
v 6.9 2.1 -0.1
v 6.9 2.9 0
v 6.9 2.9 -0.1
v 0.1 2.1 0
v 0.1 2.1 -0.1
v 0.1 2.9 0
v 0.1 2.9 -0.1
v 2.5 2.2 0
v 2.5 2.2 -0.1
v 2.5 2.4 0
v 2.5 2.4 -0.1
v 2.5 2.5 0
v 2.5 2.5 -0.1
v 2.5 2.7 0
v 2.5 2.7 -0.1
v 2.7 2.4 0
v 2.7 2.4 -0.1
v 2.7 2.5 0
v 2.7 2.5 -0.1
v 2.7 2.7 0
v 2.7 2.7 -0.1
v 2.7 2.8 0
v 2.7 2.8 -0.1
v 2.8 2.5 0
v 2.8 2.5 -0.1
v 2.8 2.7 0
v 2.8 2.7 -0.1
v 3 2.3 0
v 3 2.3 -0.1
v 3 2.7 0
v 3 2.7 -0.1
v 3.2 2.2 0
v 3.2 2.2 -0.1
v 3.2 2.3 0
v 3.2 2.3 -0.1
v 3.2 2.7 0
v 3.2 2.7 -0.1
v 3.2 2.8 0
v 3.2 2.8 -0.1
v 3.3 2.3 0
v 3.3 2.3 -0.1
v 3.3 2.7 0
v 3.3 2.7 -0.1
v 3.5 2.2 0
v 3.5 2.2 -0.1
v 3.5 2.8 0
v 3.5 2.8 -0.1
v 3.7 2.2 0
v 3.7 2.2 -0.1
v 3.7 2.6 0
v 3.7 2.6 -0.1
v 3.7 2.7 0
v 3.7 2.7 -0.1
v 3.7 2.8 0
v 3.7 2.8 -0.1
v 3.9 2.3 0
v 3.9 2.3 -0.1
v 3.9 2.7 0
v 3.9 2.7 -0.1
v 4.1 2.2 0
v 4.1 2.2 -0.1
v 4.1 2.3 0
v 4.1 2.3 -0.1
v 4.1 2.7 0
v 4.1 2.7 -0.1
v 4.1 2.8 0
v 4.1 2.8 -0.1
v 4.2 2.3 0
v 4.2 2.3 -0.1
v 4.2 2.4 0
v 4.2 2.4 -0.1
v 4.2 2.6 0
v 4.2 2.6 -0.1
v 4.2 2.7 0
v 4.2 2.7 -0.1
v 4.4 2.3 0
v 4.4 2.3 -0.1
v 4.4 2.5 0
v 4.4 2.5 -0.1
v 4.4 2.6 0
v 4.4 2.6 -0.1
v 4.4 2.7 0
v 4.4 2.7 -0.1
v 4.6 2.5 0
v 4.6 2.5 -0.1
v 4.6 2.6 0
v 4.6 2.6 -0.1
v 4.7 2.2 0
v 4.7 2.2 -0.1
v 4.7 2.3 0
v 4.7 2.3 -0.1
v 4.7 2.7 0
v 4.7 2.7 -0.1
v 4.7 2.8 0
v 4.7 2.8 -0.1
v 7 2 0
v 7 2 -2
v 7 3 0
v 7 3 -2
v 0 2 0
v 0 3 0
v 0.1 2.1 0
v 0.1 2.9 0
v 2.4 2.2 0
v 2.4 2.8 0
v 2.5 2.2 0
v 2.5 2.4 0
v 2.5 2.5 0
v 2.5 2.7 0
v 2.7 2.4 0
v 2.7 2.5 0
v 2.7 2.7 0
v 2.7 2.8 0
v 2.8 2.5 0
v 2.8 2.7 0
v 2.9 2.3 0
v 2.9 2.7 0
v 3 2.2 0
v 3 2.3 0
v 3 2.7 0
v 3 2.8 0
v 3.2 2.2 0
v 3.2 2.3 0
v 3.2 2.7 0
v 3.2 2.8 0
v 3.3 2.3 0
v 3.3 2.7 0
v 3.4 2.2 0
v 3.4 2.8 0
v 3.5 2.2 0
v 3.5 2.8 0
v 3.6 2.2 0
v 3.6 2.6 0
v 3.6 2.7 0
v 3.6 2.8 0
v 3.7 2.2 0
v 3.7 2.6 0
v 3.7 2.7 0
v 3.7 2.8 0
v 3.8 2.3 0
v 3.8 2.7 0
v 3.9 2.2 0
v 3.9 2.3 0
v 3.9 2.7 0
v 3.9 2.8 0
v 4.1 2.2 0
v 4.1 2.3 0
v 4.1 2.4 0
v 4.1 2.6 0
v 4.1 2.7 0
v 4.1 2.8 0
v 4.2 2.3 0
v 4.2 2.4 0
v 4.2 2.6 0
v 4.2 2.7 0
v 4.3 2.2 0
v 4.3 2.8 0
v 4.4 2.3 0
v 4.4 2.5 0
v 4.4 2.6 0
v 4.4 2.7 0
v 4.6 2.5 0
v 4.6 2.6 0
v 4.7 2.2 0
v 4.7 2.3 0
v 4.7 2.7 0
v 4.7 2.8 0
v 6.9 2.1 0
v 6.9 2.9 0
v 7 2 0
v 7 3 0
v 0.1 2.1 -0.1
v 0.1 2.9 -0.1
v 2.4 2.2 -0.1
v 2.4 2.8 -0.1
v 2.5 2.2 -0.1
v 2.5 2.4 -0.1
v 2.5 2.5 -0.1
v 2.5 2.7 -0.1
v 2.7 2.4 -0.1
v 2.7 2.5 -0.1
v 2.7 2.7 -0.1
v 2.7 2.8 -0.1
v 2.8 2.5 -0.1
v 2.8 2.7 -0.1
v 2.9 2.3 -0.1
v 2.9 2.7 -0.1
v 3 2.2 -0.1
v 3 2.3 -0.1
v 3 2.7 -0.1
v 3 2.8 -0.1
v 3.2 2.2 -0.1
v 3.2 2.3 -0.1
v 3.2 2.7 -0.1
v 3.2 2.8 -0.1
v 3.3 2.3 -0.1
v 3.3 2.7 -0.1
v 3.4 2.2 -0.1
v 3.4 2.8 -0.1
v 3.5 2.2 -0.1
v 3.5 2.8 -0.1
v 3.6 2.2 -0.1
v 3.6 2.6 -0.1
v 3.6 2.7 -0.1
v 3.6 2.8 -0.1
v 3.7 2.2 -0.1
v 3.7 2.6 -0.1
v 3.7 2.7 -0.1
v 3.7 2.8 -0.1
v 3.8 2.3 -0.1
v 3.8 2.7 -0.1
v 3.9 2.2 -0.1
v 3.9 2.3 -0.1
v 3.9 2.7 -0.1
v 3.9 2.8 -0.1
v 4.1 2.2 -0.1
v 4.1 2.3 -0.1
v 4.1 2.4 -0.1
v 4.1 2.6 -0.1
v 4.1 2.7 -0.1
v 4.1 2.8 -0.1
v 4.2 2.3 -0.1
v 4.2 2.4 -0.1
v 4.2 2.6 -0.1
v 4.2 2.7 -0.1
v 4.3 2.2 -0.1
v 4.3 2.8 -0.1
v 4.4 2.3 -0.1
v 4.4 2.5 -0.1
v 4.4 2.6 -0.1
v 4.4 2.7 -0.1
v 4.6 2.5 -0.1
v 4.6 2.6 -0.1
v 4.7 2.2 -0.1
v 4.7 2.3 -0.1
v 4.7 2.7 -0.1
v 4.7 2.8 -0.1
v 6.9 2.1 -0.1
v 6.9 2.9 -0.1
v 0 2 -2
v 0 3 -2
v 7 2 -2
v 7 3 -2
v 0 2 0
v 7 2 0
v 0 2 -2
v 7 2 -2
v 2.4 2.2 0
v 2.5 2.2 0
v 3 2.2 0
v 3.2 2.2 0
v 3.4 2.2 0
v 3.5 2.2 0
v 3.6 2.2 0
v 3.7 2.2 0
v 3.9 2.2 0
v 4.1 2.2 0
v 4.3 2.2 0
v 4.7 2.2 0
v 2.4 2.2 -0.1
v 2.5 2.2 -0.1
v 3 2.2 -0.1
v 3.2 2.2 -0.1
v 3.4 2.2 -0.1
v 3.5 2.2 -0.1
v 3.6 2.2 -0.1
v 3.7 2.2 -0.1
v 3.9 2.2 -0.1
v 4.1 2.2 -0.1
v 4.3 2.2 -0.1
v 4.7 2.2 -0.1
v 2.9 2.3 0
v 3 2.3 0
v 3.2 2.3 0
v 3.3 2.3 0
v 3.8 2.3 0
v 3.9 2.3 0
v 4.1 2.3 0
v 4.2 2.3 0
v 2.9 2.3 -0.1
v 3 2.3 -0.1
v 3.2 2.3 -0.1
v 3.3 2.3 -0.1
v 3.8 2.3 -0.1
v 3.9 2.3 -0.1
v 4.1 2.3 -0.1
v 4.2 2.3 -0.1
v 2.5 2.4 0
v 2.7 2.4 0
v 2.5 2.4 -0.1
v 2.7 2.4 -0.1
v 2.7 2.5 0
v 2.8 2.5 0
v 4.4 2.5 0
v 4.6 2.5 0
v 2.7 2.5 -0.1
v 2.8 2.5 -0.1
v 4.4 2.5 -0.1
v 4.6 2.5 -0.1
v 4.1 2.6 0
v 4.2 2.6 0
v 4.1 2.6 -0.1
v 4.2 2.6 -0.1
v 2.5 2.7 0
v 2.7 2.7 0
v 3 2.7 0
v 3.2 2.7 0
v 3.6 2.7 0
v 3.7 2.7 0
v 3.9 2.7 0
v 4.1 2.7 0
v 4.4 2.7 0
v 4.7 2.7 0
v 2.5 2.7 -0.1
v 2.7 2.7 -0.1
v 3 2.7 -0.1
v 3.2 2.7 -0.1
v 3.6 2.7 -0.1
v 3.7 2.7 -0.1
v 3.9 2.7 -0.1
v 4.1 2.7 -0.1
v 4.4 2.7 -0.1
v 4.7 2.7 -0.1
v 0.1 2.9 0
v 6.9 2.9 0
v 0.1 2.9 -0.1
v 6.9 2.9 -0.1
v 0.1 2.1 0
v 6.9 2.1 0
v 0.1 2.1 -0.1
v 6.9 2.1 -0.1
v 3 2.3 0
v 3.2 2.3 0
v 3.9 2.3 0
v 4.1 2.3 0
v 4.4 2.3 0
v 4.7 2.3 0
v 3 2.3 -0.1
v 3.2 2.3 -0.1
v 3.9 2.3 -0.1
v 4.1 2.3 -0.1
v 4.4 2.3 -0.1
v 4.7 2.3 -0.1
v 4.1 2.4 0
v 4.2 2.4 0
v 4.1 2.4 -0.1
v 4.2 2.4 -0.1
v 2.5 2.5 0
v 2.7 2.5 0
v 2.5 2.5 -0.1
v 2.7 2.5 -0.1
v 3.6 2.6 0
v 3.7 2.6 0
v 4.4 2.6 0
v 4.6 2.6 0
v 3.6 2.6 -0.1
v 3.7 2.6 -0.1
v 4.4 2.6 -0.1
v 4.6 2.6 -0.1
v 2.7 2.7 0
v 2.8 2.7 0
v 2.9 2.7 0
v 3 2.7 0
v 3.2 2.7 0
v 3.3 2.7 0
v 3.8 2.7 0
v 3.9 2.7 0
v 4.1 2.7 0
v 4.2 2.7 0
v 2.7 2.7 -0.1
v 2.8 2.7 -0.1
v 2.9 2.7 -0.1
v 3 2.7 -0.1
v 3.2 2.7 -0.1
v 3.3 2.7 -0.1
v 3.8 2.7 -0.1
v 3.9 2.7 -0.1
v 4.1 2.7 -0.1
v 4.2 2.7 -0.1
v 2.4 2.8 0
v 2.7 2.8 0
v 3 2.8 0
v 3.2 2.8 0
v 3.4 2.8 0
v 3.5 2.8 0
v 3.6 2.8 0
v 3.7 2.8 0
v 3.9 2.8 0
v 4.1 2.8 0
v 4.3 2.8 0
v 4.7 2.8 0
v 2.4 2.8 -0.1
v 2.7 2.8 -0.1
v 3 2.8 -0.1
v 3.2 2.8 -0.1
v 3.4 2.8 -0.1
v 3.5 2.8 -0.1
v 3.6 2.8 -0.1
v 3.7 2.8 -0.1
v 3.9 2.8 -0.1
v 4.1 2.8 -0.1
v 4.3 2.8 -0.1
v 4.7 2.8 -0.1
v 0 3 0
v 7 3 0
v 0 3 -2
v 7 3 -2

# faces
f 3/1/1 2/1/1 1/1/1
f 4/1/1 2/1/1 3/1/1
f 7/2/1 6/2/1 5/2/1
f 8/2/1 6/2/1 7/2/1
f 11/2/1 10/2/1 9/2/1
f 12/2/1 10/2/1 11/2/1
f 15/2/1 14/2/1 13/2/1
f 16/2/1 14/2/1 15/2/1
f 19/2/1 18/2/1 17/2/1
f 20/2/1 18/2/1 19/2/1
f 23/2/1 22/2/1 21/2/1
f 24/2/1 22/2/1 23/2/1
f 27/2/1 26/2/1 25/2/1
f 28/2/1 26/2/1 27/2/1
f 31/2/1 30/2/1 29/2/1
f 32/2/1 30/2/1 31/2/1
f 35/2/1 34/2/1 33/2/1
f 36/2/1 34/2/1 35/2/1
f 39/2/1 38/2/1 37/2/1
f 40/2/1 38/2/1 39/2/1
f 43/2/1 42/2/1 41/2/1
f 44/2/1 42/2/1 43/2/1
f 47/2/1 46/2/1 45/2/1
f 48/2/1 46/2/1 47/2/1
f 51/2/1 50/2/1 49/2/1
f 52/2/1 50/2/1 51/2/1
f 55/2/1 54/2/1 53/2/1
f 56/2/1 54/2/1 55/2/1
f 59/2/1 58/2/1 57/2/1
f 60/2/1 58/2/1 59/2/1
f 63/2/1 62/2/1 61/2/1
f 64/2/1 62/2/1 63/2/1
f 67/1/1 66/1/1 65/1/1
f 68/1/1 66/1/1 67/1/1
f 69/1/2 70/1/2 71/1/2
f 71/1/2 70/1/2 72/1/2
f 73/2/2 74/2/2 75/2/2
f 75/2/2 74/2/2 76/2/2
f 77/2/2 78/2/2 79/2/2
f 79/2/2 78/2/2 80/2/2
f 81/2/2 82/2/2 83/2/2
f 83/2/2 82/2/2 84/2/2
f 85/2/2 86/2/2 87/2/2
f 87/2/2 86/2/2 88/2/2
f 89/2/2 90/2/2 91/2/2
f 91/2/2 90/2/2 92/2/2
f 93/2/2 94/2/2 95/2/2
f 95/2/2 94/2/2 96/2/2
f 97/2/2 98/2/2 99/2/2
f 99/2/2 98/2/2 100/2/2
f 101/2/2 102/2/2 103/2/2
f 103/2/2 102/2/2 104/2/2
f 105/2/2 106/2/2 107/2/2
f 107/2/2 106/2/2 108/2/2
f 109/2/2 110/2/2 111/2/2
f 111/2/2 110/2/2 112/2/2
f 113/2/2 114/2/2 115/2/2
f 115/2/2 114/2/2 116/2/2
f 117/2/2 118/2/2 119/2/2
f 119/2/2 118/2/2 120/2/2
f 121/2/2 122/2/2 123/2/2
f 123/2/2 122/2/2 124/2/2
f 125/2/2 126/2/2 127/2/2
f 127/2/2 126/2/2 128/2/2
f 129/2/2 130/2/2 131/2/2
f 131/2/2 130/2/2 132/2/2
f 133/2/2 134/2/2 135/2/2
f 135/2/2 134/2/2 136/2/2
f 137/2/2 138/2/2 139/2/2
f 139/2/2 138/2/2 140/2/2
f 141/2/2 142/2/2 143/2/2
f 143/2/2 142/2/2 144/2/2
f 145/2/2 146/2/2 147/2/2
f 147/2/2 146/2/2 148/2/2
f 149/2/2 150/2/2 151/2/2
f 151/2/2 150/2/2 152/2/2
f 153/2/2 154/2/2 155/2/2
f 155/2/2 154/2/2 156/2/2
f 157/2/2 158/2/2 159/2/2
f 159/2/2 158/2/2 160/2/2
f 161/1/2 162/1/2 163/1/2
f 163/1/2 162/1/2 164/1/2
f 167/1/3 166/1/3 165/1/3
f 168/1/3 166/1/3 167/1/3
f 171/2/3 170/2/3 169/2/3
f 172/2/3 170/2/3 171/2/3
f 173/2/3 170/2/3 172/2/3
f 174/2/3 170/2/3 173/2/3
f 175/2/3 173/2/3 172/2/3
f 176/2/3 173/2/3 175/2/3
f 177/2/3 170/2/3 174/2/3
f 178/2/3 170/2/3 177/2/3
f 179/2/3 177/2/3 176/2/3
f 180/2/3 177/2/3 179/2/3
f 184/2/3 182/2/3 181/2/3
f 185/2/3 182/2/3 184/2/3
f 187/2/3 184/2/3 183/2/3
f 188/2/3 184/2/3 187/2/3
f 189/2/3 186/2/3 185/2/3
f 190/2/3 186/2/3 189/2/3
f 191/2/3 189/2/3 188/2/3
f 192/2/3 189/2/3 191/2/3
f 195/2/3 194/2/3 193/2/3
f 196/2/3 194/2/3 195/2/3
f 201/2/3 198/2/3 197/2/3
f 202/2/3 198/2/3 201/2/3
f 203/2/3 200/2/3 199/2/3
f 204/2/3 200/2/3 203/2/3
f 208/2/3 206/2/3 205/2/3
f 209/2/3 206/2/3 208/2/3
f 211/2/3 208/2/3 207/2/3
f 212/2/3 208/2/3 211/2/3
f 215/2/3 210/2/3 209/2/3
f 216/2/3 210/2/3 215/2/3
f 217/2/3 213/2/3 212/2/3
f 218/2/3 213/2/3 217/2/3
f 219/2/3 215/2/3 214/2/3
f 220/2/3 215/2/3 219/2/3
f 223/2/3 222/2/3 221/2/3
f 224/2/3 222/2/3 223/2/3
f 225/2/3 222/2/3 224/2/3
f 226/2/3 222/2/3 225/2/3
f 227/2/3 225/2/3 224/2/3
f 228/2/3 225/2/3 227/2/3
f 229/2/3 223/2/3 221/2/3
f 230/2/3 223/2/3 229/2/3
f 231/2/3 222/2/3 226/2/3
f 232/2/3 222/2/3 231/2/3
f 233/1/3 167/1/3 165/1/3
f 234/1/3 166/1/3 168/1/3
f 235/1/3 233/1/3 165/1/3
f 235/1/3 234/1/3 233/1/3
f 236/1/3 166/1/3 234/1/3
f 236/1/3 234/1/3 235/1/3
f 239/1/3 238/1/3 237/1/3
f 240/1/3 238/1/3 239/1/3
f 241/1/3 239/1/3 237/1/3
f 245/1/3 242/1/3 241/1/3
f 246/1/3 244/1/3 243/1/3
f 247/1/3 244/1/3 246/1/3
f 248/1/3 238/1/3 240/1/3
f 249/1/3 246/1/3 245/1/3
f 250/1/3 248/1/3 247/1/3
f 251/1/3 249/1/3 245/1/3
f 251/1/3 250/1/3 249/1/3
f 251/1/3 245/1/3 241/1/3
f 252/1/3 248/1/3 250/1/3
f 252/1/3 250/1/3 251/1/3
f 253/1/3 251/1/3 241/1/3
f 253/1/3 241/1/3 237/1/3
f 254/1/3 251/1/3 253/1/3
f 255/1/3 248/1/3 252/1/3
f 256/1/3 238/1/3 248/1/3
f 256/1/3 248/1/3 255/1/3
f 257/1/3 253/1/3 237/1/3
f 258/1/3 255/1/3 254/1/3
f 259/1/3 255/1/3 258/1/3
f 260/1/3 238/1/3 256/1/3
f 261/1/3 258/1/3 257/1/3
f 262/1/3 260/1/3 259/1/3
f 263/1/3 261/1/3 257/1/3
f 263/1/3 262/1/3 261/1/3
f 263/1/3 257/1/3 237/1/3
f 264/1/3 260/1/3 262/1/3
f 264/1/3 262/1/3 263/1/3
f 264/1/3 238/1/3 260/1/3
f 265/1/3 263/1/3 237/1/3
f 266/1/3 238/1/3 264/1/3
f 267/1/3 265/1/3 237/1/3
f 267/1/3 266/1/3 265/1/3
f 268/1/3 266/1/3 267/1/3
f 269/1/3 266/1/3 268/1/3
f 270/1/3 238/1/3 266/1/3
f 270/1/3 266/1/3 269/1/3
f 271/1/3 267/1/3 237/1/3
f 272/1/3 269/1/3 268/1/3
f 273/1/3 269/1/3 272/1/3
f 274/1/3 238/1/3 270/1/3
f 275/1/3 273/1/3 272/1/3
f 275/1/3 274/1/3 273/1/3
f 275/1/3 272/1/3 271/1/3
f 276/1/3 274/1/3 275/1/3
f 277/1/3 271/1/3 237/1/3
f 277/1/3 275/1/3 271/1/3
f 278/1/3 275/1/3 277/1/3
f 279/1/3 274/1/3 276/1/3
f 280/1/3 238/1/3 274/1/3
f 280/1/3 274/1/3 279/1/3
f 281/1/3 277/1/3 237/1/3
f 282/1/3 279/1/3 278/1/3
f 283/1/3 279/1/3 282/1/3
f 284/1/3 279/1/3 283/1/3
f 285/1/3 279/1/3 284/1/3
f 286/1/3 238/1/3 280/1/3
f 287/1/3 282/1/3 281/1/3
f 288/1/3 284/1/3 283/1/3
f 289/1/3 284/1/3 288/1/3
f 290/1/3 286/1/3 285/1/3
f 291/1/3 289/1/3 288/1/3
f 291/1/3 290/1/3 289/1/3
f 291/1/3 281/1/3 237/1/3
f 291/1/3 287/1/3 281/1/3
f 291/1/3 288/1/3 287/1/3
f 292/1/3 286/1/3 290/1/3
f 292/1/3 290/1/3 291/1/3
f 292/1/3 238/1/3 286/1/3
f 297/1/3 294/1/3 293/1/3
f 298/1/3 296/1/3 295/1/3
f 299/1/3 291/1/3 237/1/3
f 300/1/3 298/1/3 297/1/3
f 300/1/3 297/1/3 293/1/3
f 301/1/3 296/1/3 298/1/3
f 301/1/3 298/1/3 300/1/3
f 302/1/3 238/1/3 292/1/3
f 303/1/3 299/1/3 237/1/3
f 303/1/3 302/1/3 301/1/3
f 303/1/3 301/1/3 300/1/3
f 303/1/3 300/1/3 299/1/3
f 304/1/3 238/1/3 302/1/3
f 304/1/3 302/1/3 303/1/3
f 305/1/4 306/1/4 307/1/4
f 307/1/4 306/1/4 308/1/4
f 311/1/5 310/1/5 309/1/5
f 312/1/5 310/1/5 311/1/5
f 325/2/5 314/2/5 313/2/5
f 326/2/5 314/2/5 325/2/5
f 327/2/5 316/2/5 315/2/5
f 328/2/5 316/2/5 327/2/5
f 329/2/5 318/2/5 317/2/5
f 330/2/5 318/2/5 329/2/5
f 331/2/5 320/2/5 319/2/5
f 332/2/5 320/2/5 331/2/5
f 333/2/5 322/2/5 321/2/5
f 334/2/5 322/2/5 333/2/5
f 335/2/5 324/2/5 323/2/5
f 336/2/5 324/2/5 335/2/5
f 345/2/5 338/2/5 337/2/5
f 346/2/5 338/2/5 345/2/5
f 347/2/5 340/2/5 339/2/5
f 348/2/5 340/2/5 347/2/5
f 349/2/5 342/2/5 341/2/5
f 350/2/5 342/2/5 349/2/5
f 351/2/5 344/2/5 343/2/5
f 352/2/5 344/2/5 351/2/5
f 355/2/5 354/2/5 353/2/5
f 356/2/5 354/2/5 355/2/5
f 361/2/5 358/2/5 357/2/5
f 362/2/5 358/2/5 361/2/5
f 363/2/5 360/2/5 359/2/5
f 364/2/5 360/2/5 363/2/5
f 367/2/5 366/2/5 365/2/5
f 368/2/5 366/2/5 367/2/5
f 379/2/5 370/2/5 369/2/5
f 380/2/5 370/2/5 379/2/5
f 381/2/5 372/2/5 371/2/5
f 382/2/5 372/2/5 381/2/5
f 383/2/5 374/2/5 373/2/5
f 384/2/5 374/2/5 383/2/5
f 385/2/5 376/2/5 375/2/5
f 386/2/5 376/2/5 385/2/5
f 387/2/5 378/2/5 377/2/5
f 388/2/5 378/2/5 387/2/5
f 391/1/5 390/1/5 389/1/5
f 392/1/5 390/1/5 391/1/5
f 393/1/6 394/1/6 395/1/6
f 395/1/6 394/1/6 396/1/6
f 397/2/6 398/2/6 403/2/6
f 403/2/6 398/2/6 404/2/6
f 399/2/6 400/2/6 405/2/6
f 405/2/6 400/2/6 406/2/6
f 401/2/6 402/2/6 407/2/6
f 407/2/6 402/2/6 408/2/6
f 409/2/6 410/2/6 411/2/6
f 411/2/6 410/2/6 412/2/6
f 413/2/6 414/2/6 415/2/6
f 415/2/6 414/2/6 416/2/6
f 417/2/6 418/2/6 421/2/6
f 421/2/6 418/2/6 422/2/6
f 419/2/6 420/2/6 423/2/6
f 423/2/6 420/2/6 424/2/6
f 425/2/6 426/2/6 435/2/6
f 435/2/6 426/2/6 436/2/6
f 427/2/6 428/2/6 437/2/6
f 437/2/6 428/2/6 438/2/6
f 429/2/6 430/2/6 439/2/6
f 439/2/6 430/2/6 440/2/6
f 431/2/6 432/2/6 441/2/6
f 441/2/6 432/2/6 442/2/6
f 433/2/6 434/2/6 443/2/6
f 443/2/6 434/2/6 444/2/6
f 445/2/6 446/2/6 457/2/6
f 457/2/6 446/2/6 458/2/6
f 447/2/6 448/2/6 459/2/6
f 459/2/6 448/2/6 460/2/6
f 449/2/6 450/2/6 461/2/6
f 461/2/6 450/2/6 462/2/6
f 451/2/6 452/2/6 463/2/6
f 463/2/6 452/2/6 464/2/6
f 453/2/6 454/2/6 465/2/6
f 465/2/6 454/2/6 466/2/6
f 455/2/6 456/2/6 467/2/6
f 467/2/6 456/2/6 468/2/6
f 469/1/6 470/1/6 471/1/6
f 471/1/6 470/1/6 472/1/6
